<?xml version="1.0" encoding="utf-8"?>
<!-- Generator: Adobe Illustrator 16.0.0, SVG Export Plug-In . SVG Version: 6.00 Build 0)  -->
<!DOCTYPE svg PUBLIC "-//W3C//DTD SVG 1.1//EN" "http://www.w3.org/Graphics/SVG/1.1/DTD/svg11.dtd">
<svg version="1.1" id="Warstwa_1" xmlns="http://www.w3.org/2000/svg" xmlns:xlink="http://www.w3.org/1999/xlink" x="0px" y="0px"
	 width="50px" height="42px" viewBox="0 0 50 42" enable-background="new 0 0 50 42" xml:space="preserve">
<g>
	<g>
		<path fill="#AD0000" d="M19.543,5.493c-0.129,0.116-0.245,0.44-0.346,0.973c-0.101,0.533-0.393,3.013-0.875,7.437
			c-0.483,4.424-0.725,7.961-0.725,10.612c0,1.096,0.13,2.32,0.39,3.675c0.071,0.202,0.107,0.433,0.107,0.691
			c0,0.778-0.227,1.478-0.681,2.098c-0.454,0.619-1.034,0.929-1.74,0.929c-0.475,0-1.077-0.233-1.805-0.702
			c-0.728-0.468-1.164-1.265-1.308-2.389c-0.145-1.124-0.216-2.586-0.216-4.388c0-2.464,0.288-6.132,0.864-11.003
			c0.576-4.87,0.922-7.355,1.037-7.457c-0.403,0-2.018,0.108-4.842,0.324C6.566,6.51,4.917,6.617,4.456,6.617
			c-1.484,0-2.515-0.19-3.091-0.572C0.788,5.663,0.5,5.062,0.5,4.24c0-0.735,0.307-1.297,0.919-1.687
			c0.612-0.389,2.165-0.583,4.658-0.583c4.15,0,8.221-0.274,12.213-0.822c4.496-0.691,7.903-1.037,10.224-1.037
			c2.594,0,4.172,0.307,4.733,0.919c0.563,0.612,0.844,1.221,0.844,1.826c0,1.398-0.62,2.097-1.859,2.097
			c-0.403,0-1.052-0.043-1.945-0.13c-0.908-0.072-1.967-0.107-3.178-0.107C23.463,4.716,20.94,4.975,19.543,5.493z"/>
	</g>
	<g>
		<path fill="#AD0000" d="M40.422,18.977l-8.171,7.219l9.036,6.831c0.734,0.563,1.447,1.06,2.14,1.491l1.016,0.671
			c0.778,0.461,2.378,0.777,4.799,0.95c0.173,0.563,0.259,0.974,0.259,1.232c0,0.994-0.288,1.813-0.864,2.453
			c-0.576,0.642-1.427,0.962-2.551,0.962c-1.47,0-3.43-0.894-5.879-2.68l-8.387-6.14c-1.902-1.426-3.301-2.334-4.194-2.724
			c-0.647,0.188-1.174,2.616-1.577,7.285c-0.173,1.858-0.476,3.218-0.908,4.074c-0.433,0.857-1.146,1.286-2.14,1.286
			c-0.836,0-1.478-0.248-1.924-0.745c-0.447-0.498-0.67-1.143-0.67-1.935c0-0.347,0.071-0.836,0.216-1.471
			c0.331-1.412,0.922-6.427,1.772-15.044c0.764-7.263,1.401-11.431,1.913-12.505c0.512-1.073,1.308-1.61,2.389-1.61
			c1.815,0,2.724,1.009,2.724,3.026c-0.908,3.718-1.564,7.991-1.967,12.818c2.046-1.542,3.516-2.803,4.409-3.783
			c0.346-0.346,0.778-0.764,1.297-1.254c1.009-0.951,2.067-1.974,3.178-3.069c1.109-1.095,1.923-2.104,2.442-3.026
			c0.734-1.325,1.333-2.259,1.794-2.799s0.958-0.811,1.491-0.811c0.605,0,1.279,0.303,2.021,0.908
			c0.742,0.604,1.113,1.282,1.113,2.031c0,0.563-0.39,1.401-1.167,2.519C43.254,16.257,42.05,17.535,40.422,18.977z"/>
	</g>
</g>
</svg>
